# xmcd CD database file
#
# Track frame offsets:
#	150
#	6812
#	43796
#	101912
#	134005
#
# Disc length: 2426 seconds
#
# Revision: 0
# Processed by: cddbd v1.5.1PL0 Copyright (c) Steve Scherf et al.
# Submitted via: CDex 1.51
#
DISCID=42097805
DTITLE=John Scofield Trio - Live in Toronto [CD1]
DYEAR=2004
DGENRE=Jazz
TTITLE0=Intro
TTITLE1=It Is Written
TTITLE2=Hamock Soliloquy
TTITLE3=Name That Tune
TTITLE4=Green Tea
EXTD=YEAR: 2004
EXTT0=
EXTT1=
EXTT2=
EXTT3=
EXTT4=
PLAYORDER=
